<svg width="8" height="11" viewBox="0 0 8 11" fill="none" xmlns="http://www.w3.org/2000/svg">
<path d="M4.18164 10.5C4.18164 10.7761 3.95778 11 3.68164 11C3.4055 11 3.18164 10.7761 3.18164 10.5H3.68164H4.18164ZM3.32809 0.146446C3.52335 -0.0488157 3.83993 -0.0488157 4.03519 0.146446L7.21717 3.32843C7.41244 3.52369 7.41244 3.84027 7.21717 4.03553C7.02191 4.2308 6.70533 4.2308 6.51007 4.03553L3.68164 1.20711L0.853214 4.03553C0.657951 4.2308 0.341369 4.2308 0.146107 4.03553C-0.0491555 3.84027 -0.0491555 3.52369 0.146107 3.32843L3.32809 0.146446ZM3.68164 10.5H3.18164V0.5H3.68164H4.18164V10.5H3.68164Z" fill="black"/>
</svg>
