<svg width="20" height="20" viewBox="0 0 20 20" fill="none" xmlns="http://www.w3.org/2000/svg">
<path d="M10 6.66675V9.16675M10 9.16675V11.6667M10 9.16675H12.5M10 9.16675H7.5" stroke="#E94560" stroke-width="1.5" stroke-linecap="round"/>
<path d="M11.667 15.8333C14.8095 15.8333 16.3812 15.8333 17.357 14.8567C18.3328 13.88 18.3337 12.3092 18.3337 9.16667C18.3337 6.02417 18.3337 4.4525 17.357 3.47667C16.3803 2.50083 14.8095 2.5 11.667 2.5H8.33366C5.19116 2.5 3.61949 2.5 2.64366 3.47667C1.66783 4.45333 1.66699 6.02417 1.66699 9.16667C1.66699 12.3092 1.66699 13.8808 2.64366 14.8567C3.18783 15.4017 3.91699 15.6425 5.00033 15.7483" stroke="#E94560" stroke-width="1.5" stroke-linecap="round" stroke-linejoin="round"/>
<path d="M11.6674 15.8333C10.6374 15.8333 9.50236 16.2499 8.46652 16.7874C6.80152 17.6516 5.96902 18.0841 5.55902 17.8083C5.14902 17.5324 5.22652 16.6791 5.38236 14.9716L5.41736 14.5833" stroke="#E94560" stroke-width="1.5" stroke-linecap="round"/>
</svg>
