<svg width="59" height="43" viewBox="0 0 59 43" fill="none" xmlns="http://www.w3.org/2000/svg">
<path d="M23.5039 31.6738C23.2646 32.7041 23.1377 33.6221 23.123 34.4277V34.5381C23.1231 34.8407 23.1426 35.1506 23.1816 35.4678C23.2207 35.7803 23.2988 36.0664 23.416 36.3252C23.5381 36.5789 23.7042 36.7862 23.9141 36.9473C24.1289 37.1035 24.4023 37.1816 24.7344 37.1816C24.876 37.1816 25.0449 37.1621 25.2402 37.123V31.6738H27.0859V38.2656C27.0859 39.1494 27.0273 39.8819 26.9102 40.4629C26.793 41.0439 26.6191 41.5078 26.3896 41.8545C26.165 42.1963 25.8818 42.4385 25.54 42.5801C25.2032 42.7216 24.8124 42.792 24.3682 42.792C23.968 42.792 23.6142 42.7333 23.3066 42.6162C23.004 42.4991 22.7421 42.3456 22.5225 42.1553C22.3028 41.9649 22.1201 41.7519 21.9736 41.5176C21.8272 41.2833 21.71 41.0488 21.6221 40.8145C21.5342 40.5803 21.4727 40.3583 21.4385 40.1484C21.4043 39.9385 21.3877 39.7646 21.3877 39.6279H23.1309C23.1309 40.1748 23.2383 40.5898 23.4531 40.873C23.6728 41.1512 23.9532 41.291 24.2949 41.291C24.4902 41.291 24.6494 41.2295 24.7715 41.1074C24.8934 40.9805 24.9883 40.7997 25.0566 40.5654C25.1298 40.3312 25.1787 40.0506 25.2031 39.7236C25.2275 39.3917 25.2402 39.0203 25.2402 38.6104V38.5957C25.0742 38.6201 24.915 38.6396 24.7637 38.6543C24.6172 38.6689 24.4756 38.6758 24.3389 38.6758C23.763 38.6758 23.2821 38.576 22.8965 38.376C22.5109 38.1758 22.2002 37.912 21.9658 37.585C21.7315 37.253 21.5586 36.8789 21.4463 36.4639C21.3389 36.0439 21.2725 35.6143 21.248 35.1748C21.2383 35.0089 21.2334 34.8407 21.2334 34.6699C21.2334 33.7715 21.3633 32.7725 21.6221 31.6738H23.5039ZM50.3623 42.4111H48.2529V33.5635C47.7257 33.7148 47.1444 33.8956 46.5098 34.1055C45.8799 34.3105 45.1934 34.582 44.4512 34.9189C44.0655 35.0947 43.6727 35.2901 43.2725 35.5049C42.8721 35.7148 42.4834 35.9443 42.1074 36.1934C41.7316 36.4423 41.3778 36.7082 41.0459 36.9912C40.7139 37.2695 40.4229 37.5674 40.1738 37.8848C39.9297 38.1973 39.7344 38.5273 39.5879 38.874C39.4464 39.2206 39.376 39.5822 39.376 39.958C39.376 40.1922 39.4122 40.378 39.4854 40.5146C39.5634 40.6463 39.6544 40.7462 39.7568 40.8145C39.8593 40.8778 39.9669 40.9199 40.0791 40.9395C40.1912 40.9541 40.2843 40.9609 40.3574 40.9609V42.6973C40.2745 42.6973 40.1423 42.6845 39.9619 42.6602C39.7814 42.6406 39.5808 42.5995 39.3613 42.5361C39.1417 42.4727 38.914 42.3798 38.6797 42.2578C38.4504 42.1358 38.2381 41.9744 38.043 41.7744C37.8527 41.5695 37.6963 41.3201 37.5742 41.0273C37.4522 40.7296 37.3907 40.3728 37.3906 39.958C37.3906 39.3868 37.4962 38.8447 37.7061 38.332C37.916 37.8145 38.2012 37.3281 38.5625 36.874C38.9238 36.4199 39.3486 35.9951 39.8369 35.5996C40.3301 35.1992 40.8574 34.8281 41.4189 34.4863C41.9854 34.1445 42.5742 33.832 43.1846 33.5488C43.7948 33.2608 44.4005 32.9999 45.001 32.7656C45.6015 32.5313 46.1827 32.3232 46.7441 32.1426C47.3103 31.9571 47.8302 31.7988 48.3037 31.667H50.3623V42.4111ZM31.3535 22.1396L40.334 2.00977L41.2676 2.36914L32.2412 22.6045L49.2871 6.77539L50.0195 7.45605L33.4609 22.8311L54.874 14.5967L55.2812 15.5098L32.2773 24.3584H59.001V26.5479H32.7695C32.7695 25.7063 32.0876 25.0135 31.209 24.918L31.1729 25L30.9365 24.9092C30.9004 24.9104 30.8646 24.9109 30.8291 24.9141L30.6074 25L30.5859 24.9531C29.8097 25.1265 29.2324 25.7738 29.2324 26.5479H7.04492L4.25586 37.4375C4.9051 36.9738 5.58125 36.5761 6.28418 36.2441C6.9873 35.9072 7.70996 35.6309 8.45215 35.416C9.19918 35.2012 9.95903 35.0449 10.7305 34.9473C11.5067 34.8448 12.2932 34.7939 13.0889 34.7939C14.3826 34.794 15.506 34.9112 16.458 35.1455C17.4098 35.375 18.1984 35.6798 18.8232 36.0605C19.4481 36.4364 19.9121 36.8664 20.2148 37.3496C20.5225 37.8281 20.6768 38.3193 20.6768 38.8223C20.6768 39.1297 20.6151 39.4396 20.4932 39.752C20.376 40.0645 20.1953 40.3652 19.9512 40.6533C19.7071 40.9365 19.3993 41.2022 19.0283 41.4512C18.6622 41.7001 18.2303 41.918 17.7324 42.1035C17.2393 42.2842 16.6797 42.4258 16.0547 42.5283C15.4297 42.6357 14.7412 42.6895 13.9893 42.6895C13.3644 42.6895 12.7811 42.6308 12.2393 42.5137C11.7022 42.4014 11.204 42.2519 10.7451 42.0664C10.2912 41.8809 9.87588 41.6689 9.5 41.4297C9.12415 41.1905 8.78704 40.9462 8.48926 40.6973C8.19629 40.4482 7.93945 40.2041 7.71973 39.9648C7.50009 39.7257 7.31735 39.5107 7.1709 39.3203C7.02441 39.1299 6.91406 38.9756 6.84082 38.8584C6.77356 38.7431 6.73714 38.6821 6.73145 38.6758L8.21094 37.8477C8.58686 38.4335 9.05284 38.9561 9.60938 39.415C9.84375 39.6104 10.1104 39.8037 10.4082 39.9941C10.7108 40.1845 11.0431 40.3526 11.4043 40.499C11.7704 40.6455 12.1681 40.7656 12.5977 40.8584C13.0273 40.9463 13.4912 40.9902 13.9893 40.9902C14.8096 40.9902 15.5273 40.9268 16.1426 40.7998C16.7578 40.668 17.2686 40.4971 17.6738 40.2871C18.0838 40.0772 18.3819 39.8446 18.5674 39.5908C18.7527 39.3322 18.8457 39.076 18.8457 38.8223C18.8457 38.793 18.8379 38.7021 18.8232 38.5508C18.8132 38.3946 18.6842 38.1822 18.4355 37.9141C18.1914 37.6407 17.83 37.3984 17.3516 37.1885C16.8779 36.9785 16.2842 36.8105 15.5713 36.6836C14.8634 36.5518 14.0359 36.4854 13.0889 36.4854C12.049 36.4854 11.0917 36.5714 10.2178 36.7422C9.34887 36.9082 8.55746 37.13 7.84473 37.4082C7.13207 37.6864 6.49205 38.0041 5.92578 38.3604C5.35948 38.7118 4.85834 39.0733 4.42383 39.4443C3.40826 40.3134 2.60057 41.3028 2 42.4111H0L4.04688 26.5479H3.00098V24.3584H29.3389L6.33496 15.5098L6.74219 14.5967L28.4531 22.9473L11.7715 7.45605L12.5039 6.77539L29.5312 22.5879L20.5127 2.36914L21.4463 2.00977L30.3535 21.9775V0H31.3535V22.1396ZM30.5137 37.3281C30.5186 37.3184 30.5264 37.3037 30.5361 37.2842C30.5459 37.2647 30.5606 37.2431 30.5801 37.2188L34.2197 31.6738H36.417L33.5391 35.9512C33.9588 35.9854 34.3322 36.1055 34.6592 36.3105C34.9911 36.5107 35.2823 36.7667 35.5312 37.0791C35.7851 37.3867 36.0049 37.7335 36.1904 38.1191C36.3759 38.4999 36.5322 38.8887 36.6592 39.2842C36.9618 40.2118 37.1641 41.2541 37.2666 42.4111H35.2969C35.2188 41.498 35.0791 40.6826 34.8789 39.9648C34.7959 39.6621 34.6934 39.3643 34.5713 39.0713C34.4542 38.7785 34.3124 38.5175 34.1465 38.2881C33.9805 38.0586 33.79 37.875 33.5752 37.7383C33.3652 37.5967 33.126 37.5264 32.8574 37.5264C32.5547 37.5264 32.2861 37.5967 32.0518 37.7383C31.8174 37.875 31.6152 38.0586 31.4443 38.2881C31.2735 38.5175 31.1269 38.7784 31.0049 39.0713C30.8877 39.3642 30.79 39.6622 30.7119 39.9648C30.5264 40.6826 30.4189 41.4981 30.3896 42.4111H28.5508V31.6738H30.5137V37.3281ZM58.623 31.6738V42.4111H56.7705V35.2266L53.5186 42.4111H51.6504V31.6738H53.5039V38.8594L56.7559 31.667L58.623 31.6738Z" fill="white"/>
</svg>
