<svg width="40" height="40" viewBox="0 0 40 40" fill="none" xmlns="http://www.w3.org/2000/svg">
<path d="M6.72817 7.81329C6.66239 7.66148 6.64377 7.49341 6.67473 7.33088C6.7057 7.16836 6.78481 7.0189 6.90179 6.90192C7.01878 6.78493 7.16824 6.70582 7.33076 6.67485C7.49328 6.64389 7.66136 6.66251 7.81317 6.72829L34.4798 17.5616C34.642 17.6277 34.7792 17.7431 34.872 17.8916C34.9648 18.0401 35.0085 18.214 34.9969 18.3887C34.9853 18.5634 34.9189 18.73 34.8073 18.8648C34.6956 18.9997 34.5443 19.096 34.3748 19.14L24.1682 21.7733C23.5915 21.9215 23.065 22.2216 22.6436 22.6422C22.2221 23.0628 21.921 23.5886 21.7715 24.165L19.1398 34.375C19.0958 34.5444 18.9996 34.6957 18.8647 34.8074C18.7299 34.9191 18.5633 34.9854 18.3886 34.997C18.2139 35.0087 18.0399 34.965 17.8915 34.8721C17.743 34.7793 17.6276 34.6421 17.5615 34.48L6.72817 7.81329Z" stroke="#E94560" stroke-width="2" stroke-linecap="round" stroke-linejoin="round"/>
</svg>
